<mxfile host="65bd71144e">
    <diagram id="1fS4cnMCGBPb0d2lwQTh" name="第1頁">
        <mxGraphModel dx="2097" dy="911" grid="1" gridSize="10" guides="1" tooltips="1" connect="1" arrows="1" fold="1" page="1" pageScale="1" pageWidth="827" pageHeight="1169" math="0" shadow="0">
            <root>
                <mxCell id="0"/>
                <mxCell id="1" parent="0"/>
                <mxCell id="47" value="使用者" style="shape=umlActor;verticalLabelPosition=bottom;verticalAlign=top;html=1;strokeWidth=1;perimeterSpacing=0;" vertex="1" parent="1">
                    <mxGeometry x="40" y="525" width="30" height="60" as="geometry"/>
                </mxCell>
                <mxCell id="54" value="" style="whiteSpace=wrap;html=1;aspect=fixed;" vertex="1" parent="1">
                    <mxGeometry x="120" y="203" width="706" height="1063" as="geometry"/>
                </mxCell>
                <mxCell id="55" value="&lt;font style=&quot;font-size: 17px&quot;&gt;註冊作業&lt;/font&gt;" style="ellipse;whiteSpace=wrap;html=1;" vertex="1" parent="1">
                    <mxGeometry x="200" y="330" width="120" height="80" as="geometry"/>
                </mxCell>
                <mxCell id="59" value="訊息功能" style="ellipse;whiteSpace=wrap;html=1;fontSize=17;strokeWidth=1;" vertex="1" parent="1">
                    <mxGeometry x="450" y="310" width="120" height="80" as="geometry"/>
                </mxCell>
                <mxCell id="60" value="好友功能" style="ellipse;whiteSpace=wrap;html=1;fontSize=17;strokeWidth=1;" vertex="1" parent="1">
                    <mxGeometry x="450" y="430" width="120" height="80" as="geometry"/>
                </mxCell>
                <mxCell id="62" value="公告功能" style="ellipse;whiteSpace=wrap;html=1;fontSize=17;strokeWidth=1;" vertex="1" parent="1">
                    <mxGeometry x="450" y="550" width="120" height="80" as="geometry"/>
                </mxCell>
                <mxCell id="64" value="首頁功能" style="ellipse;whiteSpace=wrap;html=1;fontSize=17;strokeWidth=1;" vertex="1" parent="1">
                    <mxGeometry x="450" y="200" width="120" height="80" as="geometry"/>
                </mxCell>
                <mxCell id="67" value="瀏覽者" style="shape=umlActor;verticalLabelPosition=bottom;verticalAlign=top;html=1;outlineConnect=0;fontSize=17;strokeWidth=1;" vertex="1" parent="1">
                    <mxGeometry x="40" y="220" width="30" height="60" as="geometry"/>
                </mxCell>
                <mxCell id="71" value="" style="endArrow=none;html=1;fontSize=17;entryX=0;entryY=0;entryDx=0;entryDy=0;" edge="1" parent="1" target="64">
                    <mxGeometry width="50" height="50" relative="1" as="geometry">
                        <mxPoint x="100" y="250" as="sourcePoint"/>
                        <mxPoint x="320" y="320" as="targetPoint"/>
                    </mxGeometry>
                </mxCell>
                <mxCell id="72" value="" style="endArrow=none;html=1;fontSize=17;entryX=0;entryY=0.5;entryDx=0;entryDy=0;" edge="1" parent="1" target="55">
                    <mxGeometry width="50" height="50" relative="1" as="geometry">
                        <mxPoint x="100" y="250" as="sourcePoint"/>
                        <mxPoint x="170" y="330" as="targetPoint"/>
                    </mxGeometry>
                </mxCell>
                <mxCell id="73" value="" style="endArrow=none;html=1;fontSize=17;" edge="1" parent="1" target="64">
                    <mxGeometry width="50" height="50" relative="1" as="geometry">
                        <mxPoint x="90" y="570" as="sourcePoint"/>
                        <mxPoint x="320" y="480" as="targetPoint"/>
                        <Array as="points">
                            <mxPoint x="320" y="470"/>
                        </Array>
                    </mxGeometry>
                </mxCell>
                <mxCell id="77" value="登入作業" style="ellipse;whiteSpace=wrap;html=1;fontSize=17;strokeWidth=1;" vertex="1" parent="1">
                    <mxGeometry x="450" y="890" width="120" height="80" as="geometry"/>
                </mxCell>
                <mxCell id="78" value="會員" style="shape=umlActor;verticalLabelPosition=bottom;verticalAlign=top;html=1;outlineConnect=0;fontSize=17;strokeWidth=1;" vertex="1" parent="1">
                    <mxGeometry x="40" y="750" width="30" height="60" as="geometry"/>
                </mxCell>
                <mxCell id="83" value="信件管理作業" style="ellipse;whiteSpace=wrap;html=1;fontSize=17;strokeWidth=1;" vertex="1" parent="1">
                    <mxGeometry x="450" y="780" width="120" height="80" as="geometry"/>
                </mxCell>
                <mxCell id="84" value="會員作業" style="ellipse;whiteSpace=wrap;html=1;fontSize=17;strokeWidth=1;" vertex="1" parent="1">
                    <mxGeometry x="450" y="1030" width="120" height="80" as="geometry"/>
                </mxCell>
                <mxCell id="85" value="個人資料作業" style="ellipse;whiteSpace=wrap;html=1;fontSize=17;strokeWidth=1;" vertex="1" parent="1">
                    <mxGeometry x="450" y="660.5" width="120" height="80" as="geometry"/>
                </mxCell>
                <mxCell id="87" value="會員權限服務" style="ellipse;whiteSpace=wrap;html=1;fontSize=17;strokeWidth=1;" vertex="1" parent="1">
                    <mxGeometry x="450" y="1169" width="120" height="80" as="geometry"/>
                </mxCell>
                <mxCell id="88" value="" style="endArrow=none;html=1;fontSize=17;entryX=0.5;entryY=1;entryDx=0;entryDy=0;" edge="1" parent="1" target="59">
                    <mxGeometry width="50" height="50" relative="1" as="geometry">
                        <mxPoint x="90" y="570" as="sourcePoint"/>
                        <mxPoint x="120" y="650" as="targetPoint"/>
                        <Array as="points">
                            <mxPoint x="350" y="510"/>
                        </Array>
                    </mxGeometry>
                </mxCell>
                <mxCell id="89" value="" style="endArrow=none;html=1;fontSize=17;entryX=0.5;entryY=1;entryDx=0;entryDy=0;" edge="1" parent="1" target="60">
                    <mxGeometry width="50" height="50" relative="1" as="geometry">
                        <mxPoint x="90" y="570" as="sourcePoint"/>
                        <mxPoint x="130" y="470" as="targetPoint"/>
                    </mxGeometry>
                </mxCell>
                <mxCell id="90" value="" style="endArrow=none;html=1;fontSize=17;entryX=0;entryY=1;entryDx=0;entryDy=0;" edge="1" parent="1" target="62">
                    <mxGeometry width="50" height="50" relative="1" as="geometry">
                        <mxPoint x="90" y="570" as="sourcePoint"/>
                        <mxPoint x="130" y="470" as="targetPoint"/>
                    </mxGeometry>
                </mxCell>
                <mxCell id="91" value="" style="endArrow=none;html=1;fontSize=17;entryX=0.047;entryY=0.727;entryDx=0;entryDy=0;entryPerimeter=0;" edge="1" parent="1" target="85">
                    <mxGeometry width="50" height="50" relative="1" as="geometry">
                        <mxPoint x="90" y="570" as="sourcePoint"/>
                        <mxPoint x="130" y="810" as="targetPoint"/>
                    </mxGeometry>
                </mxCell>
                <mxCell id="92" value="" style="endArrow=none;html=1;fontSize=17;entryX=0;entryY=0.5;entryDx=0;entryDy=0;" edge="1" parent="1" target="83">
                    <mxGeometry width="50" height="50" relative="1" as="geometry">
                        <mxPoint x="90" y="570" as="sourcePoint"/>
                        <mxPoint x="370" y="640" as="targetPoint"/>
                    </mxGeometry>
                </mxCell>
                <mxCell id="93" value="" style="endArrow=none;html=1;fontSize=17;entryX=0;entryY=1;entryDx=0;entryDy=0;" edge="1" parent="1" target="77">
                    <mxGeometry width="50" height="50" relative="1" as="geometry">
                        <mxPoint x="90" y="570" as="sourcePoint"/>
                        <mxPoint x="370" y="810" as="targetPoint"/>
                    </mxGeometry>
                </mxCell>
                <mxCell id="94" value="" style="endArrow=none;html=1;fontSize=17;exitX=0;exitY=1;exitDx=0;exitDy=0;" edge="1" parent="1" source="64">
                    <mxGeometry width="50" height="50" relative="1" as="geometry">
                        <mxPoint x="320" y="860" as="sourcePoint"/>
                        <mxPoint x="80" y="780" as="targetPoint"/>
                        <Array as="points">
                            <mxPoint x="310" y="590"/>
                        </Array>
                    </mxGeometry>
                </mxCell>
                <mxCell id="95" value="" style="endArrow=none;html=1;fontSize=17;entryX=0;entryY=1;entryDx=0;entryDy=0;" edge="1" parent="1" target="59">
                    <mxGeometry width="50" height="50" relative="1" as="geometry">
                        <mxPoint x="80" y="780" as="sourcePoint"/>
                        <mxPoint x="370" y="550" as="targetPoint"/>
                        <Array as="points">
                            <mxPoint x="320" y="690"/>
                        </Array>
                    </mxGeometry>
                </mxCell>
                <mxCell id="96" value="" style="endArrow=none;html=1;fontSize=17;entryX=0;entryY=1;entryDx=0;entryDy=0;" edge="1" parent="1" target="60">
                    <mxGeometry width="50" height="50" relative="1" as="geometry">
                        <mxPoint x="80" y="780" as="sourcePoint"/>
                        <mxPoint x="370" y="720" as="targetPoint"/>
                        <Array as="points">
                            <mxPoint x="310" y="760"/>
                        </Array>
                    </mxGeometry>
                </mxCell>
                <mxCell id="97" value="" style="endArrow=none;html=1;fontSize=17;entryX=0;entryY=1;entryDx=0;entryDy=0;" edge="1" parent="1" target="62">
                    <mxGeometry width="50" height="50" relative="1" as="geometry">
                        <mxPoint x="80" y="780" as="sourcePoint"/>
                        <mxPoint x="320" y="550" as="targetPoint"/>
                        <Array as="points">
                            <mxPoint x="320" y="810"/>
                        </Array>
                    </mxGeometry>
                </mxCell>
                <mxCell id="98" value="" style="endArrow=none;html=1;fontSize=17;entryX=0;entryY=1;entryDx=0;entryDy=0;" edge="1" parent="1" target="85">
                    <mxGeometry width="50" height="50" relative="1" as="geometry">
                        <mxPoint x="80" y="780" as="sourcePoint"/>
                        <mxPoint x="320" y="550" as="targetPoint"/>
                        <Array as="points">
                            <mxPoint x="300" y="870"/>
                        </Array>
                    </mxGeometry>
                </mxCell>
                <mxCell id="99" value="" style="endArrow=none;html=1;fontSize=17;entryX=0;entryY=1;entryDx=0;entryDy=0;" edge="1" parent="1" target="83">
                    <mxGeometry width="50" height="50" relative="1" as="geometry">
                        <mxPoint x="80" y="780" as="sourcePoint"/>
                        <mxPoint x="320" y="750" as="targetPoint"/>
                        <Array as="points">
                            <mxPoint x="260" y="940"/>
                        </Array>
                    </mxGeometry>
                </mxCell>
                <mxCell id="100" value="" style="endArrow=none;html=1;fontSize=17;entryX=0;entryY=1;entryDx=0;entryDy=0;" edge="1" parent="1" target="77">
                    <mxGeometry width="50" height="50" relative="1" as="geometry">
                        <mxPoint x="80" y="780" as="sourcePoint"/>
                        <mxPoint x="320" y="750" as="targetPoint"/>
                        <Array as="points">
                            <mxPoint x="250" y="990"/>
                        </Array>
                    </mxGeometry>
                </mxCell>
                <mxCell id="101" value="" style="endArrow=none;html=1;fontSize=17;entryX=0;entryY=1;entryDx=0;entryDy=0;" edge="1" parent="1" target="84">
                    <mxGeometry width="50" height="50" relative="1" as="geometry">
                        <mxPoint x="80" y="780" as="sourcePoint"/>
                        <mxPoint x="310" y="910" as="targetPoint"/>
                        <Array as="points">
                            <mxPoint x="300" y="910"/>
                        </Array>
                    </mxGeometry>
                </mxCell>
                <mxCell id="102" value="" style="endArrow=none;html=1;fontSize=17;entryX=0;entryY=1;entryDx=0;entryDy=0;" edge="1" parent="1" target="87">
                    <mxGeometry width="50" height="50" relative="1" as="geometry">
                        <mxPoint x="80" y="780" as="sourcePoint"/>
                        <mxPoint x="310" y="910" as="targetPoint"/>
                        <Array as="points">
                            <mxPoint x="210" y="1040"/>
                        </Array>
                    </mxGeometry>
                </mxCell>
                <mxCell id="103" value="系統人員" style="shape=umlActor;verticalLabelPosition=bottom;verticalAlign=top;html=1;outlineConnect=0;fontSize=17;strokeWidth=1;" vertex="1" parent="1">
                    <mxGeometry x="890" y="270" width="30" height="60" as="geometry"/>
                </mxCell>
                <mxCell id="104" value="金流流程" style="ellipse;whiteSpace=wrap;html=1;fontSize=17;strokeWidth=1;" vertex="1" parent="1">
                    <mxGeometry x="670" y="1030" width="120" height="80" as="geometry"/>
                </mxCell>
                <mxCell id="105" value="" style="endArrow=none;html=1;fontSize=17;exitX=1;exitY=0.5;exitDx=0;exitDy=0;" edge="1" parent="1" source="84">
                    <mxGeometry width="50" height="50" relative="1" as="geometry">
                        <mxPoint x="610" y="550" as="sourcePoint"/>
                        <mxPoint x="880" y="300" as="targetPoint"/>
                    </mxGeometry>
                </mxCell>
                <mxCell id="111" value="&amp;lt;&amp;lt;include&amp;gt;&amp;gt;" style="html=1;verticalAlign=bottom;labelBackgroundColor=none;endArrow=open;endFill=0;dashed=1;fontSize=17;entryX=0;entryY=0.5;entryDx=0;entryDy=0;exitX=1;exitY=0.5;exitDx=0;exitDy=0;" edge="1" parent="1" source="84" target="104">
                    <mxGeometry width="160" relative="1" as="geometry">
                        <mxPoint x="480" y="1110" as="sourcePoint"/>
                        <mxPoint x="640" y="1110" as="targetPoint"/>
                    </mxGeometry>
                </mxCell>
                <mxCell id="113" value="&amp;lt;&amp;lt;include&amp;gt;&amp;gt;" style="html=1;verticalAlign=bottom;labelBackgroundColor=none;endArrow=open;endFill=0;dashed=1;fontSize=17;entryX=0.5;entryY=1;entryDx=0;entryDy=0;exitX=0.5;exitY=0;exitDx=0;exitDy=0;" edge="1" parent="1" source="84" target="77">
                    <mxGeometry x="-0.3333" y="-40" width="160" relative="1" as="geometry">
                        <mxPoint x="510" y="1020" as="sourcePoint"/>
                        <mxPoint x="670" y="1100" as="targetPoint"/>
                        <mxPoint as="offset"/>
                    </mxGeometry>
                </mxCell>
                <mxCell id="115" value="&amp;lt;&amp;lt;include&amp;gt;&amp;gt;" style="html=1;verticalAlign=bottom;labelBackgroundColor=none;endArrow=open;endFill=0;dashed=1;fontSize=17;exitX=1;exitY=0.5;exitDx=0;exitDy=0;entryX=0.94;entryY=0.188;entryDx=0;entryDy=0;entryPerimeter=0;" edge="1" parent="1" source="85" target="84">
                    <mxGeometry x="0.02" y="32" width="160" relative="1" as="geometry">
                        <mxPoint x="450" y="780" as="sourcePoint"/>
                        <mxPoint x="610" y="780" as="targetPoint"/>
                        <Array as="points">
                            <mxPoint x="690" y="910"/>
                        </Array>
                        <mxPoint as="offset"/>
                    </mxGeometry>
                </mxCell>
                <mxCell id="116" value="&amp;lt;&amp;lt;include&amp;gt;&amp;gt;" style="html=1;verticalAlign=bottom;labelBackgroundColor=none;endArrow=open;endFill=0;dashed=1;fontSize=17;exitX=0;exitY=1;exitDx=0;exitDy=0;entryX=0;entryY=0;entryDx=0;entryDy=0;" edge="1" parent="1" source="77" target="84">
                    <mxGeometry x="0.2397" y="-48" width="160" relative="1" as="geometry">
                        <mxPoint x="450" y="910" as="sourcePoint"/>
                        <mxPoint x="610" y="910" as="targetPoint"/>
                        <mxPoint as="offset"/>
                    </mxGeometry>
                </mxCell>
                <mxCell id="117" value="&amp;lt;&amp;lt;include&amp;gt;&amp;gt;" style="html=1;verticalAlign=bottom;labelBackgroundColor=none;endArrow=open;endFill=0;dashed=1;fontSize=17;entryX=0.5;entryY=1;entryDx=0;entryDy=0;exitX=0.5;exitY=0;exitDx=0;exitDy=0;" edge="1" parent="1" source="87" target="84">
                    <mxGeometry x="-0.3559" y="-50" width="160" relative="1" as="geometry">
                        <mxPoint x="420" y="1150" as="sourcePoint"/>
                        <mxPoint x="580" y="1150" as="targetPoint"/>
                        <mxPoint as="offset"/>
                    </mxGeometry>
                </mxCell>
                <mxCell id="118" value="&amp;lt;&amp;lt;include&amp;gt;&amp;gt;" style="html=1;verticalAlign=bottom;labelBackgroundColor=none;endArrow=open;endFill=0;dashed=1;fontSize=17;entryX=0;entryY=0.5;entryDx=0;entryDy=0;exitX=0.5;exitY=1;exitDx=0;exitDy=0;" edge="1" parent="1" source="55" target="84">
                    <mxGeometry x="0.8957" y="-52" width="160" relative="1" as="geometry">
                        <mxPoint x="420" y="1030" as="sourcePoint"/>
                        <mxPoint x="580" y="1030" as="targetPoint"/>
                        <mxPoint as="offset"/>
                    </mxGeometry>
                </mxCell>
                <mxCell id="119" value="&lt;p style=&quot;margin: 0px ; margin-top: 4px ; text-align: center&quot;&gt;&amp;lt;&amp;lt;actor&amp;gt;&amp;gt;&lt;/p&gt;&lt;p style=&quot;margin: 0px ; margin-top: 4px ; text-align: center&quot;&gt;第三方金融單位或銀行&lt;br&gt;&lt;/p&gt;&lt;p style=&quot;margin: 0px ; margin-top: 4px ; text-align: center&quot;&gt;&lt;br&gt;&lt;/p&gt;" style="shape=rect;html=1;overflow=fill;html=1;whiteSpace=wrap;align=center;fontSize=17;strokeWidth=1;" vertex="1" parent="1">
                    <mxGeometry x="880" y="1035" width="115" height="70" as="geometry"/>
                </mxCell>
                <mxCell id="121" value="" style="endArrow=none;html=1;fontSize=17;entryX=0;entryY=0.5;entryDx=0;entryDy=0;exitX=1;exitY=0.5;exitDx=0;exitDy=0;" edge="1" parent="1" source="104" target="119">
                    <mxGeometry width="50" height="50" relative="1" as="geometry">
                        <mxPoint x="800" y="1000" as="sourcePoint"/>
                        <mxPoint x="850" y="950" as="targetPoint"/>
                    </mxGeometry>
                </mxCell>
            </root>
        </mxGraphModel>
    </diagram>
</mxfile>